# xmcd
#
# Track frame offsets:
#	150
#	19053
#	33305
#	48543
#	67848
#	82410
#	97861
#	113601
#	129246
#	143866
#	157892
#
# Disc length: 2283 seconds
#
# Revision: 0
# Processed by: cddbd v1.5.1PL2 Copyright (c) Steve Scherf et al.
# Submitted via: dBpowerAMP V4.0
#
DISCID=8408e90b
DTITLE=Western Union - Western Union
DYEAR=1900
DGENRE=
TTITLE0=Past The Point Of Rescue
TTITLE1=He's Got You
TTITLE2=Elvis And Andy
TTITLE3=Neon Moon
TTITLE4=Turn It On Turn It Up Turn Me Loose
TTITLE5=The Heart That You own
TTITLE6=Trashy Women
TTITLE7=Boot Scootin Boogie
TTITLE8=Small Town Saturday Night
TTITLE9=Thank God For The Radio
TTITLE10=Be My Baby Tonight
EXTD=
EXTT0=
EXTT1=
EXTT2=
EXTT3=
EXTT4=
EXTT5=
EXTT6=
EXTT7=
EXTT8=
EXTT9=
EXTT10=
PLAYORDER=
